<svg width="18.000000" height="20.000000" viewBox="0 0 18 20" fill="none" xmlns="http://www.w3.org/2000/svg" xmlns:xlink="http://www.w3.org/1999/xlink">
	<desc>
			Created with Pixso.
	</desc>
	<defs/>
	<path id="Vector" d="M15 4L15 15.8032C15 16.9209 15 17.48 14.7812 17.9077C14.5898 18.2837 14.2832 18.5903 13.9082 18.7822C13.4805 19 12.9219 19 11.8027 19L6.19727 19C5.07812 19 4.51953 19 4.0918 18.7822C3.71484 18.5903 3.41016 18.2837 3.21875 17.9077C3 17.48 3 16.9199 3 15.7998L3 4M1 4L3 4L5 4L13 4L15 4L17 4M5 4C5 3.06836 5 2.60254 5.15234 2.23486C5.35547 1.74463 5.74414 1.35547 6.23438 1.15234C6.60156 1 7.06836 1 8 1L10 1C10.9316 1 11.3984 1 11.7656 1.15234C12.2559 1.35547 12.6445 1.74463 12.8477 2.23486C13 2.60254 13 3.06836 13 4" stroke="#2A4056" stroke-opacity="1.000000" stroke-width="2.000000" stroke-linejoin="round" stroke-linecap="round"/>
</svg>
