<svg style="width=0; height=0; visibility=hidden;" xmlns="http://www.w3.org/2000/svg">

<!-- polygon-azure-one -->
<symbol id="polygon-azure-one" viewBox="0 0 75 141">
    <path d="M60.118 130.649L5.46571 140.938C2.29344 141.544 -0.367847 137.609 0.0417713 132.918L10.6852 16.5552C10.9927 13.3776 12.7325 10.8052 14.882 10.3512L69.5343 0.0617053C72.7066 -0.543604 75.3678 3.39061 74.9582 8.08145L64.3147 124.445C64.0073 127.773 62.3697 130.346 60.118 130.649Z"/>
</symbol>
<!--// polygon-azure-one -->

<!-- polygon-cyan-one -->
<symbol id="polygon-cyan-one" viewBox="0 0 150 288">
    <path d="M120.06 266.585L10.7898 287.867C4.59416 289.143 -0.756691 281.057 0.0881837 271.693L21.4915 33.759C22.0548 27.3743 25.4344 21.8412 29.9403 21.4154L139.21 0.133272C145.406 -1.14362 150.757 6.94352 149.912 16.3078L128.508 254.241C127.945 260.625 124.284 265.734 120.06 266.585Z"/>
</symbol>
<!--// polygon-cyan-one -->

<!-- polygon-lime-one -->
<symbol id="polygon-lime-one" viewBox="0 0 75 141">
    <path d="M60.118 130.649L5.46571 140.938C2.29344 141.544 -0.367847 137.609 0.0417713 132.918L10.6852 16.5552C10.9927 13.3776 12.7325 10.8052 14.882 10.3512L69.5343 0.0617053C72.7066 -0.543604 75.3678 3.39061 74.9582 8.08145L64.3147 124.445C64.0073 127.773 62.3697 130.346 60.118 130.649Z"/>
</symbol>
<!--// polygon-lime-one -->


</svg>
