<svg width="164" height="187" viewBox="0 0 164 187" fill="none" xmlns="http://www.w3.org/2000/svg">
<path d="M38.4191 180.159L3.45274 186.957C1.47013 187.365 -0.242141 184.782 0.0282188 181.791L6.87729 105.784C7.05754 103.745 8.139 101.977 9.58088 101.841L44.5472 95.0426C46.5299 94.6347 48.2421 97.2181 47.9718 100.209L41.1227 176.216C40.9424 178.255 39.7709 179.887 38.4191 180.159Z" fill="#6AF5ED"/>
<path d="M147.233 175.028L86.0423 186.926C82.5727 187.639 79.5763 183.119 80.0494 177.884L92.0352 44.8722C92.3507 41.303 94.2432 38.2098 96.7665 37.9718L157.958 26.0745C161.427 25.3607 164.424 29.8816 163.951 35.1165L151.965 168.128C151.649 171.697 149.599 174.553 147.233 175.028Z" fill="url(#paint0_linear_3603_941)"/>
<path d="M79.0485 32.2178L69.5239 141L96.19 136.073L108 0L54.2856 9.47585L52 36.7664L79.0485 32.2178Z" fill="url(#paint1_linear_3603_941)"/>
<defs>
<linearGradient id="paint0_linear_3603_941" x1="122" y1="25.9999" x2="122" y2="186.999" gradientUnits="userSpaceOnUse">
<stop stop-color="#A1FFCE"/>
<stop offset="1" stop-color="#FAFFD1"/>
</linearGradient>
<linearGradient id="paint1_linear_3603_941" x1="51.9797" y1="70.5" x2="107.98" y2="70.4764" gradientUnits="userSpaceOnUse">
<stop stop-color="#17FF9C"/>
<stop offset="0.489583" stop-color="#40FFF3"/>
<stop offset="1" stop-color="#60DEFF"/>
</linearGradient>
</defs>
</svg>
